#!OML:ASF X:\für Bonn\!DataBase\2005_08_12_Daniel\c3d\Daniel.ASF
:FULLY-SPECIFIED
:DEGREES
1
root -3.66846 17.2214 -3.06933 312.863 -80.5451 -319.592
lowerback 14.6033 -1.93845 -3.14841
upperback -0.139148 -3.57025 -4.11569
thorax -8.44612 -1.73151 -1.85325
lowerneck 5.92938 11.3001 3.70513
upperneck 5.98104 15.2028 -2.48844
head 1.40035 7.59989 -1.39572
rclavicle -2.5345e-014 -3.10104e-014
rhumerus 53.7507 -5.58196 -106.179
rradius 8.85785
rwrist 74.4823
rhand -18.5215 11.1227
rfingers 7.12502
rthumb 7.76701 -18.7146
lclavicle -2.5345e-014 -3.10104e-014
lhumerus 60.2401 -6.01621 84.3303
lradius 8.22345
lwrist -56.6812
lhand -16.1459 3.55608
lfingers 7.12502
lthumb 10.0594 33.2957
rfemur 4.77609 23.149 18.7813
rtibia 27.0202
rfoot -46.2109 -25.2025
rtoes -7.82264
lfemur -6.84865 -20.9016 -23.7606
ltibia 32.0063
lfoot -25.0179 10.3748
ltoes -1.43877
2
root -3.66165 17.2215 -3.07268 312.364 -80.638 -319.153
lowerback 14.6464 -1.92184 -3.18809
upperback -0.0933098 -3.55332 -4.09273
thorax -8.41636 -1.72167 -1.80883
lowerneck 6.13155 11.1447 3.80543
upperneck 5.81824 15.0096 -2.67271
head 1.33177 7.5061 -1.48739
rclavicle -8.4732e-015 -1.98785e-014
rhumerus 53.8449 -5.38343 -106.062
rradius 8.60881
rwrist 74.0262
rhand -18.685 11.1474
rfingers 7.12502
rthumb 7.60918 -18.6957
lclavicle -8.4732e-015 -1.98785e-014
lhumerus 60.2879 -5.91332 84.3307
lradius 8.15708
lwrist -56.8891
lhand -16.128 3.71501
lfingers 7.12502
lthumb 10.0767 33.4538
rfemur 4.68068 22.6054 18.5804
rtibia 27.0151
rfoot -45.7004 -24.8407
rtoes -8.13311
lfemur -6.79046 -20.5936 -23.6962
ltibia 31.9483
lfoot -24.9347 10.2056
ltoes -1.49676
3
root -3.65303 17.2198 -3.07621 311.951 -80.7406 -318.827
lowerback 14.7312 -1.89779 -3.19672
upperback -0.0353004 -3.52356 -4.07261
thorax -8.39894 -1.70698 -1.78653
lowerneck 6.39544 10.9667 3.89551
upperneck 5.60721 14.7857 -2.82832
head 1.23249 7.3976 -1.5747
rclavicle 3.52843e-014 2.98177e-014
rhumerus 53.9722 -5.20308 -105.953
rradius 8.32708
rwrist 73.5767
rhand -18.8609 11.1621
rfingers 7.12502
rthumb 7.4394 -18.6871
lclavicle 3.52843e-014 2.98177e-014
lhumerus 60.2615 -5.84083 84.3303
lradius 8.17371
lwrist -57.0988
lhand -16.0954 3.86118
lfingers 7.12502
lthumb 10.1081 33.5984
rfemur 4.56753 21.9248 18.3647
rtibia 27.047
rfoot -45.1101 -24.3587
rtoes -8.35535
lfemur -6.7333 -20.2401 -23.6042
ltibia 31.9209
lfoot -24.8421 9.98925
ltoes -1.59007
4
root -3.64378 17.2184 -3.07947 311.604 -80.8334 -318.565
lowerback 14.8251 -1.87805 -3.18925
upperback 0.0294839 -3.49904 -4.06947
thorax -8.3815 -1.69621 -1.7902
lowerneck 6.66186 10.7641 4.05601
upperneck 5.41729 14.5349 -3.04015
head 1.1481 7.27685 -1.68965
rclavicle -3.15943e-014 -6.08281e-014
rhumerus 54.0613 -5.07488 -105.844
rradius 8.10741
rwrist 73.2416
rhand -19.0009 11.1715
rfingers 7.12502
rthumb 7.30428 -18.6824
lclavicle -3.15943e-014 -6.08281e-014
lhumerus 60.1759 -5.78069 84.2992
lradius 8.24265
lwrist -57.2451
lhand -15.9971 3.9445
lfingers 7.12502
lthumb 10.2029 33.6771
rfemur 4.40938 21.0939 18.096
rtibia 27.1185
rfoot -44.4329 -23.797
rtoes -8.63685
lfemur -6.69479 -19.8984 -23.5065
ltibia 31.9166
lfoot -24.7608 9.73783
ltoes -1.51924
5
root -3.63276 17.2167 -3.08278 311.213 -80.9067 -318.273
lowerback 14.9573 -1.86422 -3.22139
upperback 0.106256 -3.48887 -4.0449
thorax -8.36904 -1.69005 -1.74437
lowerneck 6.94186 10.5648 4.10636
upperneck 5.18598 14.2803 -3.19451
head 1.03391 7.15274 -1.77226
rclavicle 1.58096e-014 4.25399e-014
rhumerus 54.166 -4.91579 -105.696
rradius 7.86387
rwrist 72.9028
rhand -19.1344 11.192
rfingers 7.12502
rthumb 7.17547 -18.6663
lclavicle 1.58096e-014 4.25399e-014
lhumerus 60.1019 -5.6905 84.3007
lradius 8.29145
lwrist -57.3354
lhand -15.9231 4.05496
lfingers 7.12502
lthumb 10.2743 33.784
rfemur 4.23407 20.1839 17.7802
rtibia 27.2192
rfoot -43.697 -23.1629
rtoes -8.86263
lfemur -6.67122 -19.5503 -23.4311
ltibia 31.9421
lfoot -24.6674 9.5021
ltoes -1.68794
6
root -3.62072 17.2131 -3.08655 311.015 -80.9925 -318.185
lowerback 15.1102 -1.84585 -3.20211
upperback 0.190747 -3.46558 -4.02869
thorax -8.36318 -1.67995 -1.73883
lowerneck 7.21383 10.3275 4.18935
upperneck 4.98388 13.9773 -3.36502
head 0.931369 7.005 -1.86347
rclavicle -1.16786e-015 -1.59028e-015
rhumerus 54.2147 -4.81933 -105.544
rradius 7.72313
rwrist 72.6533
rhand -19.1684 11.1948
rfingers 7.12502
rthumb 7.14263 -18.6647
lclavicle -1.16786e-015 -1.59028e-015
lhumerus 60.0852 -5.65859 84.3034
lradius 8.26216
lwrist -57.286
lhand -15.8767 4.07145
lfingers 7.12502
lthumb 10.3191 33.7983
rfemur 4.04784 19.2228 17.4995
rtibia 27.3567
rfoot -42.8922 -22.5701
rtoes -9.01166
lfemur -6.65198 -19.2456 -23.3265
ltibia 31.9925
lfoot -24.6047 9.27863
ltoes -1.7364
7
root -3.60798 17.2086 -3.09049 310.889 -81.0679 -318.173
lowerback 15.2996 -1.83681 -3.20425
upperback 0.267233 -3.45917 -3.9953
thorax -8.38428 -1.67611 -1.69797
lowerneck 7.42848 10.085 4.18873
upperneck 4.85576 13.6581 -3.43466
head 0.84639 6.84693 -1.90381
rclavicle -6.62823e-015 -3.57812e-015
rhumerus 54.2443 -4.71061 -105.367
rradius 7.58397
rwrist 72.4313
rhand -19.1458 11.2605
rfingers 7.12502
rthumb 7.16438 -18.5982
lclavicle -6.62823e-015 -3.57812e-015
lhumerus 60.0465 -5.5982 84.3186
lradius 8.23639
lwrist -57.2272
lhand -15.7651 4.09156
lfingers 7.12502
lthumb 10.4268 33.813
rfemur 3.8441 18.1932 17.2027
rtibia 27.5249
rfoot -42.092 -21.904
rtoes -9.18524
lfemur -6.6552 -18.9034 -23.2107
ltibia 32.0776
lfoot -24.5205 9.00157
ltoes -1.79125
8
root -3.59508 17.203 -3.0938 310.834 -81.13 -318.226
lowerback 15.4795 -1.84235 -3.19773
upperback 0.359555 -3.4707 -3.97322
thorax -8.38423 -1.68217 -1.6705
lowerneck 7.55862 9.8316 4.16091
upperneck 4.78803 13.3205 -3.48005
head 0.789752 6.67836 -1.92454
rclavicle 3.62161e-015 3.69739e-014
rhumerus 54.2547 -4.58947 -105.215
rradius 7.50086
rwrist 72.2384
rhand -19.081 11.2912
rfingers 7.12502
rthumb 7.22699 -18.5654
lclavicle 3.62161e-015 3.69739e-014
lhumerus 60.0038 -5.52566 84.3059
lradius 8.22719
lwrist -57.0771
lhand -15.6938 4.13766
lfingers 7.12502
lthumb 10.4955 33.8556
rfemur 3.62403 17.1331 16.8951
rtibia 27.7224
rfoot -41.2704 -21.2654
rtoes -9.31878
lfemur -6.68699 -18.5992 -23.0969
ltibia 32.2014
lfoot -24.4664 8.71086
ltoes -1.8494
9
root -3.582 17.1956 -3.09855 311.004 -81.177 -318.547
lowerback 15.7236 -1.84586 -3.17374
upperback 0.45423 -3.48014 -3.9497
thorax -8.41843 -1.68747 -1.64985
lowerneck 7.64383 9.53585 4.0162
upperneck 4.76538 12.9139 -3.37519
head 0.732952 6.4725 -1.87478
rclavicle 3.76588e-014 3.57812e-015
rhumerus 54.2224 -4.54624 -105.024
rradius 7.46419
rwrist 72.071
rhand -18.9625 11.339
rfingers 7.12502
rthumb 7.34133 -18.5136
lclavicle 3.76588e-014 3.57812e-015
lhumerus 59.9136 -5.50998 84.3171
lradius 8.26198
lwrist -56.8384
lhand -15.6044 4.14975
lfingers 7.12502
lthumb 10.5818 33.8633
rfemur 3.45276 16.1171 16.6581
rtibia 27.9448
rfoot -40.5261 -20.6562
rtoes -9.5556
lfemur -6.71538 -18.2086 -22.9582
ltibia 32.3646
lfoot -24.3429 8.36358
ltoes -1.8995
10
root -3.56944 17.1864 -3.10262 311.142 -81.2095 -318.887
lowerback 16.0257 -1.85161 -3.15257
upperback 0.574133 -3.49622 -3.92918
thorax -8.45759 -1.69627 -1.62767
lowerneck 7.56969 9.21597 3.71614
upperneck 4.83376 12.4587 -3.1262
head 0.710289 6.23814 -1.74224
rclavicle 1.05348e-014 1.47101e-014
rhumerus 54.1998 -4.49706 -104.831
rradius 7.46056
rwrist 71.8724
rhand -18.8472 11.377
rfingers 7.12502
rthumb 7.45266 -18.4718
lclavicle 1.05348e-014 1.47101e-014
lhumerus 59.7968 -5.49291 84.3299
lradius 8.38228
lwrist -56.63
lhand -15.4643 4.15371
lfingers 7.12502
lthumb 10.717 33.8604
rfemur 3.33773 15.1168 16.426
rtibia 28.1926
rfoot -39.8042 -20.0732
rtoes -9.75067
lfemur -6.71105 -17.7931 -22.8383
ltibia 32.5743
lfoot -24.2635 7.94894
ltoes -1.92793
11
root -3.55856 17.1749 -3.10776 311.52 -81.2292 -319.487
lowerback 16.3366 -1.88056 -3.14002
upperback 0.706814 -3.54224 -3.88769
thorax -8.48571 -1.71877 -1.57079
lowerneck 7.57874 8.9185 3.38988
upperneck 4.83883 12.0326 -2.88449
head 0.656816 6.01863 -1.61389
rclavicle -7.14072e-015 -3.33958e-014
rhumerus 54.1512 -4.39369 -104.643
rradius 7.48334
rwrist 71.7052
rhand -18.7876 11.4356
rfingers 7.12502
rthumb 7.51013 -18.411
lclavicle -7.14072e-015 -3.33958e-014
lhumerus 59.662 -5.42051 84.3367
lradius 8.55688
lwrist -56.4205
lhand -15.2663 4.11565
lfingers 7.12502
lthumb 10.9079 33.8123
rfemur 3.25853 14.1591 16.2543
rtibia 28.465
rfoot -39.1484 -19.5324
rtoes -9.90701
lfemur -6.7146 -17.3795 -22.695
ltibia 32.8358
lfoot -24.1903 7.49222
ltoes -2.00095
12
root -3.54817 17.1617 -3.11357 312.22 -81.2045 -320.407
lowerback 16.6383 -1.92136 -3.10295
upperback 0.859377 -3.59944 -3.8586
thorax -8.48893 -1.74866 -1.53859
lowerneck 7.66169 8.61665 3.13818
upperneck 4.79542 11.6083 -2.70846
head 0.587645 5.80191 -1.52249
rclavicle -4.42917e-015 -3.26007e-014
rhumerus 54.1485 -4.35135 -104.439
rradius 7.54104
rwrist 71.5323
rhand -18.6809 11.5231
rfingers 7.12502
rthumb 7.61311 -18.3198
lclavicle -4.42917e-015 -3.26007e-014
lhumerus 59.5266 -5.40347 84.348
lradius 8.79402
lwrist -56.2691
lhand -14.9989 4.11953
lfingers 7.12502
lthumb 11.1658 33.8024
rfemur 3.18323 13.2286 16.1127
rtibia 28.7649
rfoot -38.5807 -19.066
rtoes -10.1835
lfemur -6.77962 -16.8552 -22.5129
ltibia 33.1534
lfoot -24.0499 6.88301
ltoes -2.00379
13
root -3.53852 17.1468 -3.1208 313.098 -81.1769 -321.497
lowerback 16.943 -1.97234 -3.08066
upperback 0.995728 -3.67098 -3.80748
thorax -8.50867 -1.78374 -1.47033
lowerneck 7.85633 8.31243 2.88322
upperneck 4.6956 11.1816 -2.5626
head 0.486461 5.58442 -1.4461
rclavicle -3.30542e-014 -7.43455e-014
rhumerus 54.0895 -4.28131 -104.232
rradius 7.64436
rwrist 71.4191
rhand -18.6742 11.5725
rfingers 7.12502
rthumb 7.61958 -18.2702
lclavicle -3.30542e-014 -7.43455e-014
lhumerus 59.353 -5.35298 84.3636
lradius 9.0641
lwrist -56.1545
lhand -14.739 4.13936
lfingers 7.12502
lthumb 11.4164 33.8085
rfemur 3.09351 12.3849 16.0261
rtibia 29.1093
rfoot -38.1146 -18.6507
rtoes -10.3348
lfemur -6.89894 -16.2846 -22.2913
ltibia 33.5203
lfoot -23.8853 6.25381
ltoes -2.20403
